<svg width="476" height="93" viewBox="0 0 476 93" fill="none" xmlns="http://www.w3.org/2000/svg"><g clip-path="url(#clip0_2_3259)"><path d="M144.85 56.29V22.41c0-1.79 0-1.79 2.1-1.79h9.37c1.86 0 1.84 0 1.84 1.79V90.1c0 1.94 0 2-1.82 2h-9.7c-1.8 0-1.8 0-1.8-1.91v-33.9M303.1 89.18l-10-36.45s-7.93-29.13-8.25-30.25c-.32-1.12-.63-1.86-2.13-1.86h-10.13c-1.78 0-1.8.44-2.26 2.18l-10.47 38.42-7.81 28.45c-.65 2.35-.95 2.32 1.08 2.32h10.53a.881.881 0 00.95-.7l13-46.66 9.45 34.69h-7.59c-.94 0-1.1.28-1.12 1.09-.02.81 0 9.43 0 10.51s-.22 1.07 1.12 1.08c1.34.01 19.43 0 22.08 0 2.44 0 1.51-2.81 1.51-2.81m172.58-.01l-10-36.45s-7.93-29.13-8.25-30.25c-.32-1.12-.63-1.86-2.13-1.86h-10.13c-1.78 0-1.8.44-2.26 2.18l-10.43 38.42s-7.2 26.08-7.81 28.45c-.61 2.37-.95 2.32 1.08 2.32h10.53a.881.881 0 00.95-.7l13-46.66 9.45 34.69h-7.59c-.94 0-1.1.28-1.12 1.09-.02.81 0 9.39 0 10.51 0 1.12-.22 1.07 1.12 1.08 1.34.01 19.43 0 22.08 0 2.44 0 1.51-2.81 1.51-2.81M206.07 67.74s13.94-43.56 14.42-45.22c.48-1.66.94-1.91 3.08-1.91h10.8c2.15 0 2.14 0 2.14 2.67v66.67c0 2.07.1 2.06-1.93 2.06h-8.88c-1.68 0-1.65.13-1.65-2.08V49.9s-12.5 39.35-12.92 40.43c-.42 1.08-.15 1.66-2.45 1.66h-5.34c-2.21 0-1.94-.6-2.21-1.62s-12.25-40.45-12.25-40.45v40c0 2.08.1 2-1.91 2h-8.88c-1.82 0-1.78 0-1.8-2.06-.02-2.06 0-64.49 0-66.92 0-2.43 0-2.39 2.51-2.39h10c3 0 3.3.13 3.86 2.1.56 1.97 13.36 45 13.36 45m129.34-34.13v55.92c0 2.42 0 2.58-1.85 2.58h-9.59c-1.72 0-1.71-.06-1.71-2.38V33.52h-14.63c-2.02 0-2 0-2-1.67V22.5c0-1.88.08-1.91 2.15-1.91h42.18c2.1 0 2.1.21 2.1 1.91v9.4c0 1.7 0 1.69-2.12 1.7h-14.51" fill="#1D1D1B"/><path d="M33.31 6.97a3.47 3.47 0 01-3.16 3.74 3.51 3.51 0 01-3-1.25 9.068 9.068 0 00-.54-1 3.519 3.519 0 01-.23-.93 3.473 3.473 0 116.92-.6l.01.04zm-9.07 5.96a5.34 5.34 0 11-1-2.54c.131.252.278.496.44.73a5 5 0 01.51 1.81h.05zm-10.06 9.02a3.45 3.45 0 11-3.16 3.74 3.47 3.47 0 013.16-3.74zm-3.9 10.4a7 7 0 11-6.41 7.55 7 7 0 016.41-7.59v.04zM8.57 56.53a5.41 5.41 0 115.87 4.93 5.391 5.391 0 01-5.86-4.89l-.01-.04zm13.4 6.37a2.69 2.69 0 112.91 2.43 2.68 2.68 0 01-2.91-2.43zm-4.12-15.3a1.15 1.15 0 000 .18l-.14-.08s.06-.07.1-.1h.04zm34.96 26.74a27.64 27.64 0 001.12-4.87H54c.76-.2 1.53-.42 2.29-.69l1.18-.44a26.001 26.001 0 008.81-5.94 25.811 25.811 0 005.71-8.9 24.13 24.13 0 001.58-8 21.72 21.72 0 00-.18-3.42 22.46 22.46 0 00-2.84-8.3v-.09a20.58 20.58 0 00-2.43-3.2 21.063 21.063 0 00-4-3.4 22 22 0 00-5.39-2.53 20.6 20.6 0 00-3.43-.79h-.89a17.868 17.868 0 00-5.88.58 16.3 16.3 0 00-9.59 6.93l-.09.14c-3.17 5.5-2.8 11.65.91 15.67a10 10 0 008.28 3.67 8.561 8.561 0 003.75-1.3l.19-.13.3-.2c.5-.343.917-.794 1.22-1.32 1-1.74 1-4.26-.2-5.35l-.12-.13c-2-1.9-1.32-3.16 0-3.35a2.879 2.879 0 012.47.94 8.36 8.36 0 012 3.9c.147.76.194 1.537.14 2.31a9.11 9.11 0 01-1.47 4.17 11.709 11.709 0 01-2.3 2.31 11.14 11.14 0 01-5.26 2.09 1.801 1.801 0 00-.23 0 14.23 14.23 0 01-10.32-3.14 15.62 15.62 0 01-5.69-10.76c-.71-7 2.25-13.24 8.3-17.58a21.71 21.71 0 018.5-3.55 22.642 22.642 0 015.89-.28 22.11 22.11 0 014.34.77c.994.25 1.97.567 2.92.95.844.359 1.669.763 2.47 1.21a23.184 23.184 0 014 2.77 24.851 24.851 0 015 5.7 27 27 0 013 6.52 28.776 28.776 0 011 4.79c.14 1.118.21 2.243.21 3.37v.79a27.431 27.431 0 01-2.71 10.85 31.143 31.143 0 01-2.08 3.69 34.65 34.65 0 01-2.1 2.8 31.63 31.63 0 01-8.33 7 31.259 31.259 0 01-9.46 3.59c-.21 0-.4.09-.61.12l-.05.03zM127.2 91.9a58.07 58.07 0 01-33.58-49.79c0-.66-.33-3.67-.45-4.42a40.24 40.24 0 00-3.81-11.67 39.703 39.703 0 00-3.2-5.3 38.926 38.926 0 00-3.08-3.84c-.42-.45-.85-.9-1.29-1.33a35.213 35.213 0 00-3.54-3.16 42.41 42.41 0 00-8.81-5.35 38.828 38.828 0 00-5.38-1.94 37.919 37.919 0 00-4.12-1h-.07a.39.39 0 00-.15 0 43.61 43.61 0 00-6-.45 37.34 37.34 0 00-16.67 3.67 5.45 5.45 0 000-.7 7.31 7.31 0 00-14.3-1.37 9.13 9.13 0 00-13 9 8.87 8.87 0 001.68 4.49A7.26 7.26 0 007.08 26a7.1 7.1 0 001 2.9 10.79 10.79 0 00-.64 20.69 9.17 9.17 0 007.32 15.67 9.06 9.06 0 003.56-1.06 6.5 6.5 0 0012.32 1 30.33 30.33 0 0016.63 5.12h.84a21.367 21.367 0 01-1.43 4.58 22.83 22.83 0 01-3.36 5.42c-4.06 4.81-11.27 9.58-24.09 11.58h18.44a32.3 32.3 0 0012.45-11.5c1.57-.113 3.13-.33 4.67-.65l.68-.16v.09a33.23 33.23 0 01-9.74 12.22h8.41a38.125 38.125 0 004.37-5.8c1 2 2.07 3.91 3.19 5.8h6.74a97.276 97.276 0 01-7.46-14h.08a33.854 33.854 0 003.91-1.83 92.592 92.592 0 008.72 15.83h7a87.882 87.882 0 01-10.89-19h.06a34.004 34.004 0 003.45-3 83.33 83.33 0 0013 22.12h7.54a78 78 0 01-16.26-27.16l.06-.08a33.9 33.9 0 002.93-5.01A73.61 73.61 0 0099.89 91.9h8.55a67.83 67.83 0 01-24.7-46.17v-.94c0-.859-.05-1.717-.15-2.57a32.51 32.51 0 00-4.87-14.4 31 31 0 00-8.48-8.87 30.557 30.557 0 00-5.63-3.06 32.309 32.309 0 00-3.72-1.22 27.767 27.767 0 00-4.34-.8 26.08 26.08 0 00-5.92-.06 27 27 0 00-13.09 4.79c-7.7 5.51-11.59 13.8-10.68 22.78a21.378 21.378 0 007.83 14.52 19.871 19.871 0 0014.81 4.3 16.621 16.621 0 005.5-1.69 16.4 16.4 0 004-2.78 15.552 15.552 0 002-2.22l.1-.15a16.16 16.16 0 002.51-6.82 12.91 12.91 0 00-.28-4.88 11.4 11.4 0 00-4.24-6.31h-.06a11.05 11.05 0 00-1.31-.82 10.579 10.579 0 00-4.34-1.27 7.71 7.71 0 00-3.69.59 6.19 6.19 0 00-2.15 1.56 4.86 4.86 0 00-1.24 2.84 4 4 0 001.14 3.24 3.391 3.391 0 011.18 2.41 1.47 1.47 0 01-1 1.22c-.76.23-2-.07-3.59-1.83-2.43-2.6-1.63-6.46-.21-9a11 11 0 014-3.62 11.79 11.79 0 015.86-1.27c.29-.015.58-.015.87 0 1.187.172 2.351.478 3.47.91a15.5 15.5 0 015.42 3.46c.867.85 1.626 1.804 2.26 2.84a16.48 16.48 0 012 5.83 14.67 14.67 0 01.2 3.38 19.001 19.001 0 01-1.2 5.69 19.752 19.752 0 01-2 3.91 20.62 20.62 0 01-8.72 7.42c-.51.22-1 .43-1.52.61-1.3.456-2.639.79-4 1-11 1.63-22.49-5.1-26.52-16.22a28.41 28.41 0 01-1.67-11.43 28.85 28.85 0 0112.82-21.9 31.48 31.48 0 0116.8-5.56 35.93 35.93 0 015.92.22c.4 0 .81.1 1.23.16 1.06.18 2.1.41 3.14.69a35.243 35.243 0 015.36 1.93 34.012 34.012 0 014 2.12 33.335 33.335 0 014.87 3.66 32.078 32.078 0 013.58 3.7 34.58 34.58 0 017.87 19.08v.65a63.52 63.52 0 0027.89 50.35h11.45z" fill="#ED6B41"/><path d="M380.17 59.41s4.26.09 8.82 0a6.422 6.422 0 006.43-6 97.36 97.36 0 00.27-12.34c-.16-5.9-2.54-5.9-5.07-6.5-2.53-.6-10.45-.82-10.45-.82v25.66zm-.1 13.46v16.8c0 2.35.59 2.38-2.34 2.38h-8.69c-2 0-2-.08-2-2V23.62c0-3-.18-3 2.26-3h20.3c5.51 0 10.64 1.41 14.47 5.13 3.83 3.72 4.62 12.19 4.62 12.19.501 6.03.501 12.09 0 18.12-.65 12.81-8.62 14.64-8.62 14.64s7.27 16.52 8.4 18.83c1.13 2.31 1.14 2.59-1.41 2.45-2.55-.14-7.11 0-9.3 0-2.19 0-2.13 0-2.87-1.67-.74-1.67-7-15.6-7-15.6a3.222 3.222 0 00-3.33-1.9l-4.49.06z" fill="#1D1D1B"/></g><defs><clipPath id="clip0_2_3259"><path fill="#fff" d="M0 0h475.82v92.05H0z"/></clipPath></defs></svg>